<?xml version="1.0" encoding="utf-8"?>
<!-- Generator: Adobe Illustrator 25.4.1, SVG Export Plug-In . SVG Version: 6.00 Build 0)  -->
<svg version="1.1" id="Layer_1" xmlns="http://www.w3.org/2000/svg" xmlns:xlink="http://www.w3.org/1999/xlink" x="0px" y="0px"
	 viewBox="0 0 1000 500" style="enable-background:new 0 0 1000 500;" xml:space="preserve">
<style type="text/css">
	.st0{fill:#FFFFFF;}
	.st1{fill-rule:evenodd;clip-rule:evenodd;}
</style>
<rect class="st0" width="1000" height="500"/>
<g>
	<path class="st1" d="M386.9,302.8c0,1.2-0.5,1.9-1.4,2.4c-1.8,1-5.4,1.4-7.8,1.4c-6.3,0-12.6-2.1-18-7.3c-2.4-2.3-7.3-9.3-7.3-19
		c0-8,2.8-14.3,6.8-17.4c5.2-4.1,10.4-4.5,14.7-4.5c8.9,0,14.4,3,16.1,5.6c1,1.6,1.4,3.6,1.4,4.5c0.1,0.6,0.1,1,0.5,1
		c0.5,0,0.6-0.3,0.6-1.4c0-6.9,0.5-8.8,0.5-9.7c0-0.3-0.1-0.6-0.8-0.6c-1.7-0.1-4.1-0.3-5.6-0.7c-1.3-0.3-6.2-1.2-10.5-1.2
		c-5.3,0-12.1,0.5-18.3,4.3c-6.1,3.8-11.5,11.6-11.5,22.6c0,8.6,4,15.9,8.2,19.6c7.6,6.7,17.4,7.3,22.6,7.3c4,0,10.2-0.8,14.6-3.1
		c0.8-0.5,0.9-0.6,0.9-3.7v-7.7c0-2.9,0-4.9,0.1-7.1c0.1-2.4,0.7-3.6,2.5-3.9c0.8-0.1,1.2-0.2,1.7-0.2c0.3,0,0.5-0.1,0.5-0.4
		c0-0.4-0.3-0.5-1.1-0.5c-2.1,0-6.4,0.2-6.7,0.2c-0.3,0-4.7-0.2-7.8-0.2c-0.8,0-1.1,0.1-1.1,0.5c0,0.3,0.3,0.4,0.5,0.4
		c0.6,0,1.8,0.1,2.3,0.2c2.7,0.8,3.1,1.5,3.1,7.1L386.9,302.8L386.9,302.8z"/>
	<path class="st1" d="M406.1,302.1c-1.1,2.9-2.2,5.2-4.9,5.5c-0.5,0.1-1.3,0.1-1.7,0.1c-0.3,0-0.5,0.1-0.5,0.4
		c0,0.4,0.4,0.5,1.1,0.5c2.8,0,6-0.2,6.6-0.2c0.6,0,3.2,0.2,4.6,0.2c0.5,0,0.9-0.1,0.9-0.5c0-0.2-0.2-0.4-0.6-0.4h-0.6
		c-1,0-2.2-0.5-2.2-1.7c0-1.1,0.3-2.5,0.8-3.9l3.5-10.4c0.1-0.3,0.3-0.5,0.6-0.5h12.6c0.3,0,0.4,0.1,0.5,0.4l5.5,14.5
		c0.4,0.9,0,1.5-0.4,1.6c-0.2,0.1-0.4,0.2-0.4,0.4c0,0.4,0.6,0.4,1.8,0.4c4.1,0.1,8.4,0.1,9.2,0.1c0.6,0,1.2-0.1,1.2-0.5
		c0-0.3-0.2-0.4-0.6-0.4c-0.6,0-1.5-0.1-2.4-0.4c-1.2-0.4-2.9-1.3-5.1-6.5c-3.6-8.9-12.8-33.2-13.7-35.5c-0.7-1.8-0.9-2.1-1.3-2.1
		c-0.4,0-0.6,0.4-1.3,2.3L406.1,302.1z M414.3,289.1c-0.2,0-0.3-0.1-0.2-0.4l5.2-15.9c0.3-0.9,0.6-0.9,0.9,0l5.6,15.9
		c0.1,0.2,0.1,0.4-0.2,0.4H414.3z"/>
	<path class="st1" d="M459.4,266.6l7.4,0.1c5.6,0.1,7,1.5,7.2,3.2l0.1,0.6c0.1,0.8,0.2,1,0.5,1c0.2,0,0.4-0.2,0.4-0.8
		c0-0.6,0.2-4.7,0.2-6.5c0-0.4,0-0.7-0.3-0.7c-0.2,0-0.8,0.1-1.6,0.3c-0.9,0.1-2.3,0.3-4.2,0.3H447c-0.7,0-2.9-0.1-4.6-0.3
		c-1.6-0.1-2.2-0.7-2.6-0.7c-0.2,0-0.5,0.8-0.6,1.1c-0.1,0.5-1.3,5.5-1.3,6.1c0,0.4,0.1,0.5,0.3,0.5c0.2,0,0.4-0.1,0.6-0.6
		c0.2-0.4,0.4-0.8,1-1.8c0.9-1.4,2.4-1.8,6-1.9l8.7-0.1v24.9c0,5.6,0,10.3-0.3,12.8c-0.2,1.7-0.5,3-1.7,3.2
		c-0.5,0.1-1.2,0.2-1.8,0.2c-0.4,0-0.5,0.2-0.5,0.4c0,0.4,0.3,0.5,0.9,0.5c1.8,0,5.5-0.2,5.8-0.2c0.3,0,4,0.2,7.2,0.2
		c0.6,0,0.9-0.2,0.9-0.5c0-0.2-0.1-0.4-0.5-0.4c-0.5,0-1.8-0.1-2.6-0.2c-1.8-0.2-2.1-1.5-2.3-3.2c-0.3-2.5-0.3-7.1-0.3-12.8V266.6
		L459.4,266.6z"/>
	<path class="st1" d="M486.5,291.5c0,5.6,0,10.3-0.3,12.8c-0.2,1.7-0.5,3-1.7,3.2c-0.5,0.1-1.2,0.2-1.8,0.2c-0.4,0-0.5,0.2-0.5,0.4
		c0,0.4,0.3,0.5,0.9,0.5c0.9,0,2.2-0.1,3.4-0.1c1.2,0,2.2-0.1,2.4-0.1c1.7,0,5.6,0.4,14.5,0.4c2.3,0,2.8,0,3.2-1.5
		c0.3-1.2,0.8-5.2,0.8-5.7c0-0.4,0-0.9-0.4-0.9c-0.3,0-0.4,0.2-0.5,0.9c-0.4,2.4-1.1,3.6-2.6,4.2c-1.5,0.6-4.1,0.6-5.6,0.6
		c-5.8,0-6.6-0.8-6.8-4.8c-0.1-1.2,0-8.1,0-10.1v-5.2c0-0.2,0.1-0.4,0.4-0.4c1,0,6.8,0.1,8.4,0.3c2.3,0.2,2.8,1.2,3.1,2.1
		c0.2,0.8,0.2,1.4,0.2,1.9c0,0.3,0.1,0.5,0.4,0.5c0.4,0,0.4-0.6,0.4-1.1c0-0.4,0.1-2.6,0.2-3.8c0.2-1.9,0.5-2.9,0.5-3.3
		c0-0.4-0.1-0.5-0.3-0.5c-0.2,0-0.5,0.3-0.9,0.8c-0.5,0.6-1.4,0.7-2.8,0.8c-1.4,0.1-8.6,0.1-9.4,0.1c-0.3,0-0.4-0.2-0.4-0.6V267
		c0-0.4,0.1-0.6,0.4-0.6c0.6,0,7.1,0.1,8.1,0.2c3.2,0.4,3.8,1.1,4.2,2c0.3,0.7,0.4,1.7,0.4,2.1c0,0.5,0.1,0.8,0.5,0.8
		c0.2,0,0.4-0.4,0.4-0.6c0.1-0.7,0.2-3.3,0.3-3.9c0.2-1.6,0.5-2.4,0.5-2.8c0-0.3-0.1-0.5-0.2-0.5c-0.3,0-0.5,0.2-0.8,0.3
		c-0.5,0.1-1.4,0.2-2.5,0.3c-1.4,0.1-13.1,0.1-13.5,0.1c-0.3,0-4-0.2-6.6-0.2c-0.6,0-0.9,0.1-0.9,0.5c0,0.2,0.2,0.4,0.5,0.4
		c0.5,0,1.5,0.1,2,0.2c1.9,0.4,2.4,1.4,2.5,3.4c0.1,1.9,0.1,3.5,0.1,12.7L486.5,291.5L486.5,291.5z"/>
	<path class="st1" d="M526.1,309.4c3.2,0,6.4-0.7,8.9-2.5c4.1-2.9,5-7.4,5-9.8c0-4.7-1.6-8.4-8.6-13.8l-1.6-1.3
		c-5.5-4.5-7.2-6.5-7.2-9.9c0-4.3,3.2-6.8,7.2-6.8c5.4,0,7,2.5,7.4,3.1c0.4,0.6,0.7,2.2,0.8,2.9c0.1,0.5,0.1,0.8,0.5,0.8
		c0.3,0,0.4-0.4,0.4-1.4c0-4,0.2-5.9,0.2-6.2c0-0.3-0.1-0.4-0.6-0.4c-0.5,0-0.9-0.1-2.1-0.3c-1.5-0.4-3.2-0.6-5.5-0.6
		c-7.5,0-12.2,4.3-12.2,10.6c0,4,1.4,7.6,7.7,12.8l2.6,2.2c5.1,4.2,6.8,6.5,6.8,10.6c0,3.8-2.8,7.8-8.4,7.8c-3.9,0-7.8-1.6-8.7-6
		c-0.2-0.8-0.2-1.6-0.2-2.2c0-0.5-0.1-0.6-0.4-0.6c-0.3,0-0.4,0.3-0.5,0.9c-0.1,0.9-0.3,3.3-0.3,6.2c0,1.6,0.1,1.8,0.9,2.2
		C520.6,309,523.3,309.4,526.1,309.4z"/>
	<path class="st1" d="M579.4,280.6c0.7-0.5,0.8-1.3,0.5-1.8h-6c1.3-4.1,2.3-8,4.5-11.2c1.2-1.6,2.4-2.6,3.8-2.6
		c1.3,0,2.8,0.9,2.9,3.8c0,0.3,0.2,0.8,0.7,0.8c0.8,0,2.1-1.5,2.1-3c0-1.9-1.9-3.2-4-3.2c-2.8,0-5.7,1.2-8.1,4
		c-2.8,3.4-4.1,7.1-5.4,11.5h-4.1c-0.6,0.4-0.8,1.3-0.3,1.8h4c-2.3,7.9-3.9,16.1-6.4,24.2c-1,3.3-2.2,4-3,4c-1,0-2.2-0.7-2.9-1.8
		c-0.4-0.6-0.7-1-1.4-0.4c-0.3,0.2-0.9,0.7-0.9,1.7c0,0.8,0.9,2.5,3.1,2.5c2.8,0,4.9-1.9,5.5-2.5c1-0.9,2.5-3.6,3.8-7.9
		c1.6-5.3,3-10.7,4.5-16c0.4-1.4,0.8-3,1.1-3.8L579.4,280.6L579.4,280.6z"/>
	<path class="st1" d="M596.6,278.1c-2,0-4.1,0.7-6.6,3.1c-3.3,3.1-5.1,7.8-5.3,10.8c-0.3,4.1,1.7,6.4,4.8,6.4c1.3,0,3.9-0.2,6.9-3.3
		c3.6-3.7,5-8.3,5.1-10.9C601.7,280.7,600,278.1,596.6,278.1z M596.2,279.6c1.7,0,2,1.7,1.9,3.2c-0.1,2.6-2.4,8.9-4.5,11.8
		c-1.5,2.1-2.7,2.5-3.8,2.5c-1.4,0-2.1-1.4-2-3.1c0.1-2.6,2-8.3,4.8-12.1C594.1,280,595.3,279.6,596.2,279.6z"/>
	<path class="st1" d="M618.6,279.6c0.3-0.8-0.8-1.4-1.4-1.4c-2.3,0-7.1,3.8-8.3,5.7c0,0.4,0.3,0.8,0.8,0.7c1.2-1.2,3.7-3.3,4.6-3.3
		c0.4,0,0.3,0.5,0,1.4l-4.4,11.7c-0.8,2.1-0.6,4.1,1.4,4.1c2.6,0,8.6-6.2,12.1-10.6l0.1,0l-3.3,8.8c-0.3,0.8,0.4,1.7,1.2,1.7
		c2.6,0,7.2-3.8,8.4-6.1c0-0.6-0.4-0.8-0.9-0.7c-1.3,1.5-3.8,3.8-4.7,3.8c-0.5,0-0.4-0.6-0.2-1.2c2-5.7,5.2-13.6,5.6-14.9
		c-0.2-0.6-1.4-1.1-2.4-0.9c-1.6,2.9-4.1,8.5-8.5,12.9c-2.5,2.5-4.4,4-5.2,4c-0.5,0-0.8-0.5-0.3-1.6L618.6,279.6z"/>
	<path class="st1" d="M646.6,280.1c0.4-1.1-0.1-2-1.3-2c-2.4,0-5.4,2-7.2,4.5c0,0.4,0.2,0.7,0.6,0.7c1.6-1.4,3.3-2.4,4.4-2.4
		c0.4,0,0.4,0.5,0.1,1.1c-0.2,0.7-5.4,14.6-5.6,15.2c-0.4,1.1,0.9,1.3,1.4,1.3c0.4,0,0.6-0.1,0.9-0.6c2.8-5.3,4.8-9.1,7.4-12.2
		c2.6-3.3,5.5-5.7,6.6-5.7c0.7,0,0.8,0.6,0.8,1.2c0,1-0.6,2.7-1,3.5c-1.1,2.4-2.9,7.1-3.9,9.5c-1,2.4-1.2,2.7-1.2,3.2
		c0,0.6,0.7,1.2,1.2,1.2c2.6,0,6.5-2.3,8.3-5.4c0-0.4-0.1-0.8-0.8-0.7c-1.4,1.7-3.7,3.3-4.5,3.3c-0.3,0-0.3-0.4-0.1-0.9
		c0.1-0.4,3.6-8.2,4.5-10.7c0.4-1.1,0.8-2.6,0.8-3.4c0-1.6-0.8-2.6-2.7-2.6c-3.6,0-8.4,5.3-11.8,10.5l-0.1-0.1L646.6,280.1z"/>
	<path class="st1" d="M682.6,279.6c-0.5-1-1.7-1.5-2.5-1.5c-2.3,0-5.4,1.4-8.6,4.3c-3.8,3.4-6.4,9.2-6.4,12.6c0,1.9,1,3.5,2.9,3.5
		c4.7,0,8.3-4.7,11.6-9.1l0.2,0l-1.7,4.8c-0.5,1.4-0.6,2.2-0.6,2.7c0,0.8,0.5,1.5,1.5,1.5c2.5,0,6.9-4,8.2-6.6
		c0-0.4-0.3-0.6-0.7-0.6c-1.5,1.9-4.5,4.3-5.3,4.3c-0.4,0-0.5-0.5-0.3-1.1c0.4-1.4,2.7-9.2,7.5-22.3c1.4-4,2.2-5.8,3-8.5l-0.2-0.3
		c-2.1,0-4.8,0.6-5.7,0.9c-0.2,0.2-0.2,0.5-0.1,0.7l1.1,0.8c0.7,0.4,0.5,1.3-0.4,4L682.6,279.6z M680,279.6c1.2,0,1.8,1.4,1.3,3.5
		c-0.7,2.6-2.1,5.4-5.9,9.3c-3.3,3.4-5.8,4.3-6.5,4.3c-0.4,0-0.9-0.4-0.9-1c0-0.6,0-1.5,1.5-4.6c1.5-3,5-7.6,6.9-9.4
		C677.6,280.5,678.9,279.6,680,279.6z"/>
	<path class="st1" d="M709.4,280.1c-0.2-0.5-0.8-0.9-1-1c-0.3-0.1-0.6-0.3-1.2-0.3c-1.3,0-2.5,0.3-4.3,1.4c-2,1.1-4,3-6.4,6.2
		c-3.2,4.4-4.2,8.2-4.2,9.3c0,1.4,0.8,2.7,2.1,2.7c2.3,0,7.2-3.3,10.6-7.6l0.1,0l-1.6,4.3c-0.4,1.1-0.5,1.5-0.5,1.9
		c0,0.4,0.3,1.3,1.4,1.3c2.6,0,6.1-2.7,8.1-5.4c0-0.4-0.3-0.6-0.7-0.6c-2.7,2.4-4.1,3.2-5,3.2c-0.4,0-0.6-0.3-0.3-1.1
		c1.5-4.4,5.7-15,6.5-16.8c-0.3-0.6-1.5-1.1-2.4-0.7L709.4,280.1z M705.8,280.6c1.3,0,2.1,0.8,2.4,1.7c-0.8,2.8-2.8,7-6.5,10.4
		c-2.7,2.5-4.2,3.1-4.7,3.1c-0.4,0-0.7-0.3-0.7-0.9c0-3.4,2.9-9.7,6-12.5C703.9,281.2,704.6,280.6,705.8,280.6z"/>
	<path class="st1" d="M733.8,281.1c0.6-0.3,0.9-1.3,0.6-1.8h-5.3l1.4-4.7c-0.4-0.5-1.4-0.6-1.8-0.3l-2.7,4.8l-3.9,0.7
		c-0.5,0.2-0.6,0.9-0.5,1.3h3.8l-4.5,13.3c-0.5,1.4-0.7,2.1-0.7,2.7c0,0.6,0.6,1.3,1.3,1.3c2,0,6.6-2.9,9.3-6.9
		c0.1-0.6-0.2-0.9-0.7-0.9c-1.6,1.8-4.8,4.3-5.5,4.3c-0.4,0-0.6-0.3-0.3-1.2l4.3-12.7H733.8L733.8,281.1z"/>
	<path class="st1" d="M738.6,296.7c-0.2,0.5-0.1,1,0.2,1.3c0.2,0.3,0.5,0.4,0.8,0.4c3.3,0,8.3-4.3,9-5.7c0-0.4-0.2-0.8-0.7-0.8
		c-1.6,1.9-4.2,3.6-5,3.6c-0.4,0-0.3-0.6-0.1-1.1l5.7-13.7c0.6-1.4,0.6-1.8,0.3-2.1c-0.2-0.2-0.4-0.5-0.8-0.5c-1.6,0-5.3,1.8-8,4.8
		c-0.1,0.4,0.2,0.8,0.6,0.8c2.4-2,3.7-2.6,4-2.6c0.3,0,0.3,0.4,0.1,0.9L738.6,296.7z M749.2,266.6c-1.9,0-2.6,2-2.6,3
		c0,0.9,0.5,1.8,1.7,1.8c1.5,0,2.6-1.5,2.6-3C750.9,267.3,750.3,266.6,749.2,266.6z"/>
	<path class="st1" d="M769.2,278.1c-2,0-4.1,0.7-6.7,3.1c-3.3,3.1-5.1,7.8-5.3,10.8c-0.3,4.1,1.7,6.4,4.8,6.4c1.3,0,3.9-0.2,6.9-3.3
		c3.6-3.7,5-8.3,5.1-10.9C774.3,280.7,772.6,278.1,769.2,278.1z M768.8,279.6c1.7,0,2,1.7,1.9,3.2c-0.1,2.6-2.4,8.9-4.5,11.8
		c-1.5,2.1-2.8,2.5-3.8,2.5c-1.4,0-2.1-1.4-2-3.1c0.1-2.6,2-8.3,4.8-12.1C766.7,280,767.9,279.6,768.8,279.6z"/>
	<path class="st1" d="M790.5,280.1c0.4-1.1-0.1-2-1.3-2c-2.4,0-5.4,2-7.2,4.5c0,0.4,0.2,0.7,0.6,0.7c1.6-1.4,3.3-2.4,4.4-2.4
		c0.4,0,0.4,0.5,0.1,1.1c-0.2,0.7-5.4,14.6-5.6,15.2c-0.4,1.1,0.9,1.3,1.4,1.3c0.4,0,0.6-0.1,0.9-0.6c2.8-5.3,4.8-9.1,7.4-12.2
		c2.7-3.3,5.5-5.7,6.7-5.7c0.7,0,0.8,0.6,0.8,1.2c0,1-0.6,2.7-1,3.5c-1.1,2.4-2.9,7.1-3.9,9.5c-1,2.4-1.2,2.7-1.2,3.2
		c0,0.6,0.7,1.2,1.2,1.2c2.7,0,6.5-2.3,8.3-5.4c0-0.4-0.1-0.8-0.8-0.7c-1.4,1.7-3.7,3.3-4.5,3.3c-0.3,0-0.3-0.4-0.1-0.9
		c0.1-0.4,3.6-8.2,4.5-10.7c0.4-1.1,0.8-2.6,0.8-3.4c0-1.6-0.8-2.6-2.7-2.6c-3.6,0-8.4,5.3-11.8,10.5l-0.1-0.1L790.5,280.1z"/>
	<path class="st1" d="M204,223.4c0,6.6,0,12-0.3,14.9c-0.3,2-0.6,3.5-2,3.8c-0.6,0.1-1.4,0.3-2.1,0.3c-0.4,0-0.6,0.2-0.6,0.4
		c0,0.4,0.3,0.6,1.1,0.6c2.1,0,6.4-0.2,6.7-0.2c0.6,0,7.6,0.4,9.1,0.4c11.7,0,17.5-7.6,17.5-15c0-8-6.8-12.9-11.9-14.5
		c3.2-3.4,6.5-6.7,6.5-12.4c0-3.4-2.5-10.3-13.7-10.3c-3.2,0-5.8,0.2-7.5,0.2c-0.3,0-4.7-0.2-7.8-0.2c-0.8,0-1.1,0.1-1.1,0.5
		c0,0.3,0.3,0.4,0.6,0.4c0.6,0,1.8,0.1,2.3,0.2c2.3,0.5,2.8,1.6,3,3.9c0.1,2.2,0.1,4.1,0.1,14.8L204,223.4L204,223.4z M209.5,194.4
		c0-0.4,0.2-0.6,0.8-0.8c1.1-0.3,2.5-0.3,3.3-0.3c6.7,0,9.3,6.1,9.3,11.8c0,2.8-1,5.3-2.5,6.9c-1.4,1.6-2.4,1.8-6.2,1.8
		c-2.5,0-3.8-0.2-4.2-0.3c-0.3-0.1-0.5-0.3-0.5-0.8L209.5,194.4L209.5,194.4z M209.5,216.2c0-0.3,0.1-0.5,0.4-0.5c1,0,4.5,0,5.4,0.1
		c1.6,0.2,3.4,0.4,5.7,2c5.3,3.6,6.7,9.6,6.7,13.7c0,7.8-6,9.7-9.7,9.7c-1.2,0-4.2-0.1-6-1c-2.1-1-2.1-2-2.3-5.4
		c-0.1-1-0.1-9.5-0.1-14.8V216.2L209.5,216.2z"/>
	<path class="st1" d="M253.5,215.8c0-9.2,0-10.8,0.1-12.7c0.1-2.1,0.6-3.1,2.2-3.4c0.7-0.1,1.1-0.2,1.5-0.2c0.2,0,0.5-0.1,0.5-0.4
		c0-0.4-0.3-0.5-0.9-0.5c-1.8,0-5.5,0.2-5.8,0.2c-0.3,0-4-0.2-5.9-0.2c-0.6,0-0.9,0.1-0.9,0.5c0,0.2,0.2,0.4,0.5,0.4
		c0.4,0,1.2,0.1,1.8,0.2c1.3,0.3,1.9,1.3,2,3.3c0.1,1.9,0.1,3.5,0.1,12.7v10.4c0,5.6,0,10.3-0.3,12.8c-0.2,1.7-0.5,3-1.7,3.2
		c-0.5,0.1-1.2,0.2-1.8,0.2c-0.4,0-0.5,0.2-0.5,0.4c0,0.4,0.3,0.5,0.9,0.5c1.8,0,5.5-0.2,5.8-0.2c0.3,0,4,0.2,7.2,0.2
		c0.6,0,0.9-0.2,0.9-0.5c0-0.2-0.1-0.4-0.5-0.4c-0.5,0-1.8-0.1-2.6-0.2c-1.8-0.2-2.1-1.5-2.3-3.2c-0.3-2.5-0.3-7.1-0.3-12.8
		L253.5,215.8L253.5,215.8z"/>
	<path class="st1" d="M279,215.8c0-9.2,0-10.8,0.1-12.7c0.1-2.1,0.6-3.1,2.3-3.4c0.7-0.1,1.5-0.2,1.9-0.2c0.2,0,0.5-0.1,0.5-0.4
		c0-0.4-0.3-0.5-0.9-0.5c-1.8,0-6.1,0.2-6.4,0.2c-0.3,0-4-0.2-6.6-0.2c-0.6,0-0.9,0.1-0.9,0.5c0,0.2,0.2,0.4,0.5,0.4
		c0.5,0,1.5,0.1,2,0.2c1.9,0.4,2.4,1.4,2.5,3.4c0.1,1.9,0.1,3.5,0.1,12.7v10.4c0,5.6,0,10.3-0.3,12.8c-0.2,1.7-0.5,3-1.7,3.2
		c-0.5,0.1-1.2,0.2-1.8,0.2c-0.4,0-0.5,0.2-0.5,0.4c0,0.4,0.3,0.5,0.9,0.5c0.9,0,2.2-0.1,3.4-0.1c1.2,0,2.2-0.1,2.4-0.1
		c3.4,0,7.3,0.4,15.8,0.4c3.1,0,3.3-0.2,3.7-1.6c0.5-1.7,0.9-5.2,0.9-5.9c0-0.6-0.1-0.9-0.4-0.9c-0.4,0-0.5,0.3-0.5,0.8
		c-0.2,1.1-0.8,2.6-1.5,3.5c-1.4,1.7-4,1.8-7.1,1.8c-4.6,0-6.1-0.4-7.1-1.4c-1.1-1.1-1.3-4.8-1.3-13.5V215.8z"/>
	<path class="st1" d="M312.1,215.8c0-9.2,0-10.8,0.1-12.7c0.1-2.1,0.6-3.1,2.3-3.4c0.7-0.1,1.5-0.2,1.9-0.2c0.2,0,0.5-0.1,0.5-0.4
		c0-0.4-0.3-0.5-0.9-0.5c-1.8,0-6.1,0.2-6.4,0.2c-0.3,0-4-0.2-6.6-0.2c-0.6,0-0.9,0.1-0.9,0.5c0,0.2,0.2,0.4,0.5,0.4
		c0.5,0,1.5,0.1,2,0.2c1.9,0.4,2.4,1.4,2.5,3.4c0.1,1.9,0.1,3.5,0.1,12.7v10.4c0,5.6,0,10.3-0.3,12.8c-0.2,1.7-0.5,3-1.7,3.2
		c-0.5,0.1-1.2,0.2-1.8,0.2c-0.4,0-0.5,0.2-0.5,0.4c0,0.4,0.3,0.5,0.9,0.5c0.9,0,2.2-0.1,3.4-0.1c1.2,0,2.2-0.1,2.4-0.1
		c3.4,0,7.3,0.4,15.8,0.4c3.1,0,3.3-0.2,3.7-1.6c0.5-1.7,0.9-5.2,0.9-5.9c0-0.6-0.1-0.9-0.4-0.9c-0.4,0-0.5,0.3-0.5,0.8
		c-0.2,1.1-0.8,2.6-1.5,3.5c-1.4,1.7-4,1.8-7.1,1.8c-4.6,0-6.1-0.4-7.1-1.4c-1.1-1.1-1.3-4.8-1.3-13.5L312.1,215.8L312.1,215.8z"/>
	<path class="st1" d="M351.6,237.8c3.5,0,8.4-1.5,11.9-5.4c3.8-4.3,4.9-9.2,5.1-10.7c0.1-0.9,0.2-3.3,0.2-4.2
		c1.5,1.2,3.2,3.1,3.4,3.5c0.2,0.4,0.6,0.6,1.2,0.3c0.9-0.5,2.9-1.1,3.7-1.2c0.5-0.1,1-0.2,1.3-0.5c0.4-0.4,0.9-1.2,0.9-2.3
		c0-1.3-0.5-2.8-1.8-2.8c-0.9,0-1.6,0.6-1.6,1.2c0,0.1,0.1,0.4,0.2,0.7c0.1,0.3,0.2,0.7,0.2,1.2c0,0.8-0.5,1.5-1,1.5
		c-0.9,0-1-0.2-2.2-1.3c-2.4-2.2-3.9-3.9-6.6-3.9c-0.7,0-2.9,0.4-4.9,2c-2.5,2-3.4,4.3-3.4,5.6c0,1.3,1.1,2,2.1,2
		c1.4,0,1.6-1,1.6-1.4c0-0.3-0.2-0.8-0.3-1.4c-0.2-0.5-0.4-1.2-0.4-1.6c0-1.7,2.1-3.2,3.6-3.2c1,0,2,0.3,2.6,0.8
		c-0.2,4.1-0.8,6.6-2.7,10c-2.9,5.3-8,8.1-12.1,8.1c-3.8,0-8.9-2.1-8.8-8.5v-0.4c5.2-3.5,13.5-9.8,17.6-13.9
		c4.6-4.5,6.3-7.6,6.3-10.2c0-1.9-1.1-2.6-2.3-2.6c-0.9,0-2,0.7-2,2c0,0.5,0.1,0.7,0.5,1.1c0.3,0.3,0.6,0.8,0.6,1.5
		c0,1.3-1.1,3.3-1.8,4.2c-1.4,1.8-4.8,5.3-7,7.1c-0.4-0.6-0.9-1.9-3.1-1.9c-1.1,0-4.2,0.5-7.4,3.9c-4,4.1-4.8,8.2-4.8,10.7
		C340.6,233,343.7,237.8,351.6,237.8z M344,224.2c0.3-2.1,1.1-4.1,2.7-6.1c1.5-1.9,3.1-2.7,3.8-2.7c0.9,0,1.6,0.6,1.6,1.5
		c0,0.1,0,0.7,0,1.2C350.5,219.6,347.6,221.7,344,224.2z"/>
	<path class="st1" d="M443.8,191.9c-0.1-1.3-0.3-1.9-0.8-1.9c-0.5,0-0.8,0.5-1,1.1l-20.2,43.1l-21-43.2c-0.3-0.8-0.6-1-1-1
		c-0.4,0-0.6,0.5-0.8,1.2L394,236c-0.3,2.6-0.5,5.3-2.7,5.7c-1,0.2-1.5,0.2-2.1,0.2c-0.3,0-0.7,0.1-0.7,0.3c0,0.5,0.5,0.6,1.2,0.6
		c1.9,0,5.1-0.2,5.8-0.2c0.6,0,3.8,0.2,6.4,0.2c0.8,0,1.2-0.1,1.2-0.6c0-0.2-0.3-0.3-0.6-0.3c-0.4,0-1.4-0.1-2.6-0.3
		c-1-0.2-1.8-1.1-1.8-2.1c0-1.2,0-2.4,0.1-3.5l2.7-31.9h0.3c0.8,1.9,8.4,18.3,9.1,19.6c0.3,0.7,6.2,12.6,8,15.9
		c1.3,2.5,1.6,3.2,2.1,3.2c0.6,0,0.8-0.6,2.3-3.6l16.8-35.7h0.2l3.3,35.4c0.1,1.2,0.1,2.4-0.3,2.5c-0.3,0.1-0.5,0.2-0.5,0.5
		c0,0.3,0.3,0.6,1.9,0.7c2.5,0.2,10,0.4,11.5,0.4c0.8,0,1.4-0.2,1.4-0.6c0-0.3-0.2-0.3-0.5-0.3c-0.7,0-2.5,0-4.5-0.6
		c-3-1-3.4-4.8-3.7-7.3L443.8,191.9z"/>
	<path class="st1" d="M466.8,225.8c0,5.6,0,10.3-0.3,12.8c-0.2,1.7-0.5,3-1.7,3.2c-0.5,0.1-1.2,0.2-1.8,0.2c-0.4,0-0.5,0.2-0.5,0.4
		c0,0.4,0.3,0.5,0.9,0.5c0.9,0,2.2-0.1,3.4-0.1c1.2,0,2.2-0.1,2.4-0.1c1.7,0,5.6,0.4,14.5,0.4c2.3,0,2.8,0,3.2-1.5
		c0.3-1.2,0.8-5.2,0.8-5.7c0-0.4,0-0.9-0.4-0.9c-0.3,0-0.4,0.2-0.5,0.9c-0.4,2.4-1.1,3.6-2.6,4.2c-1.5,0.6-4.1,0.6-5.6,0.6
		c-5.8,0-6.6-0.8-6.8-4.8c-0.1-1.2,0-8.1,0-10.1v-5.2c0-0.2,0.1-0.4,0.4-0.4c1,0,6.8,0.1,8.4,0.3c2.3,0.2,2.8,1.2,3.1,2.1
		c0.2,0.8,0.2,1.4,0.2,1.9c0,0.3,0.1,0.5,0.4,0.5c0.4,0,0.4-0.6,0.4-1.1c0-0.4,0.1-2.6,0.2-3.8c0.2-1.9,0.5-2.9,0.5-3.3
		c0-0.4-0.1-0.5-0.3-0.5c-0.2,0-0.5,0.3-0.9,0.8c-0.5,0.6-1.4,0.7-2.8,0.8c-1.4,0.1-8.6,0.1-9.4,0.1c-0.3,0-0.4-0.2-0.4-0.6v-16.2
		c0-0.4,0.1-0.6,0.4-0.6c0.6,0,7.1,0.1,8.1,0.2c3.2,0.4,3.8,1.1,4.2,2c0.3,0.7,0.4,1.7,0.4,2.1c0,0.5,0.1,0.8,0.5,0.8
		c0.2,0,0.4-0.4,0.4-0.6c0.1-0.7,0.2-3.3,0.3-3.9c0.2-1.6,0.5-2.4,0.5-2.8c0-0.3-0.1-0.5-0.2-0.5c-0.3,0-0.5,0.2-0.8,0.3
		c-0.5,0.1-1.4,0.2-2.5,0.3c-1.4,0.1-13.1,0.1-13.5,0.1c-0.3,0-4-0.2-6.7-0.2c-0.6,0-0.9,0.1-0.9,0.5c0,0.2,0.2,0.4,0.5,0.4
		c0.5,0,1.5,0.1,2,0.2c1.9,0.4,2.4,1.4,2.5,3.4c0.1,1.9,0.1,3.5,0.1,12.7V225.8L466.8,225.8z"/>
	<path class="st1" d="M506.6,215.4c0-9.2,0-10.8,0.1-12.7c0.1-2.1,0.6-3.1,2.3-3.4c0.7-0.1,1.5-0.2,1.9-0.2c0.2,0,0.5-0.1,0.5-0.4
		c0-0.4-0.3-0.5-0.9-0.5c-1.8,0-6.1,0.2-6.4,0.2c-0.3,0-4-0.2-6.6-0.2c-0.6,0-0.9,0.1-0.9,0.5c0,0.2,0.2,0.4,0.5,0.4
		c0.5,0,1.5,0.1,2,0.2c1.9,0.4,2.4,1.4,2.5,3.4c0.1,1.9,0.1,3.5,0.1,12.7v10.4c0,5.6,0,10.3-0.3,12.8c-0.2,1.7-0.5,3-1.7,3.2
		c-0.5,0.1-1.2,0.2-1.8,0.2c-0.4,0-0.5,0.2-0.5,0.4c0,0.4,0.3,0.5,0.9,0.5c0.9,0,2.2-0.1,3.4-0.1c1.2,0,2.2-0.1,2.4-0.1
		c3.4,0,7.3,0.4,15.8,0.4c3.1,0,3.3-0.2,3.7-1.6c0.5-1.7,0.9-5.2,0.9-5.9s-0.1-0.9-0.4-0.9c-0.4,0-0.5,0.3-0.5,0.8
		c-0.2,1.1-0.8,2.6-1.5,3.5c-1.4,1.7-4,1.8-7.1,1.8c-4.6,0-6.1-0.4-7.1-1.4c-1.1-1.1-1.3-4.8-1.3-13.5V215.4L506.6,215.4z"/>
	<path class="st1" d="M541,215.4c0-9.2,0-10.8,0.1-12.7c0.1-2.1,0.6-3.1,2.2-3.4c0.7-0.1,1.1-0.2,1.5-0.2c0.2,0,0.5-0.1,0.5-0.4
		c0-0.4-0.3-0.5-0.9-0.5c-1.8,0-5.5,0.2-5.8,0.2c-0.3,0-4-0.2-5.9-0.2c-0.6,0-0.9,0.1-0.9,0.5c0,0.2,0.2,0.4,0.5,0.4
		c0.4,0,1.2,0.1,1.8,0.2c1.3,0.3,1.9,1.3,2,3.3c0.1,1.9,0.1,3.5,0.1,12.7v10.4c0,5.6,0,10.3-0.3,12.8c-0.2,1.7-0.5,3-1.7,3.2
		c-0.5,0.1-1.2,0.2-1.8,0.2c-0.4,0-0.5,0.2-0.5,0.4c0,0.4,0.3,0.5,0.9,0.5c1.8,0,5.5-0.2,5.8-0.2c0.3,0,4,0.2,7.2,0.2
		c0.6,0,0.9-0.2,0.9-0.5c0-0.2-0.1-0.4-0.5-0.4c-0.5,0-1.8-0.1-2.6-0.2c-1.8-0.2-2.1-1.5-2.3-3.2c-0.3-2.5-0.3-7.1-0.3-12.8
		L541,215.4L541,215.4z"/>
	<path class="st1" d="M562.4,206.6c1.9,2.1,8.5,9.5,15.4,16.9c6.2,6.7,14.7,15.4,15.4,15.9c3.1,3.1,3.8,3.8,4.3,3.8
		c0.4,0,0.5-0.3,0.5-4.2l0.1-34.5c0-3.5,0.2-4.8,2.2-5.2c0.7-0.2,1.1-0.2,1.4-0.2c0.4,0,0.6-0.2,0.6-0.4c0-0.4-0.4-0.4-1.1-0.4
		c-2.4,0-4.4,0.2-5,0.2c-0.6,0-3.5-0.2-6.1-0.2c-0.7,0-1.2,0.1-1.2,0.4c0,0.2,0.1,0.4,0.5,0.4c0.5,0,1.8,0.1,2.9,0.3
		c1.8,0.5,2.2,1.8,2.3,5.6l0.6,29.9c-1.9-1.9-8.3-9.1-14.1-15.4c-9.1-9.7-17.8-19.2-18.7-20.2c-0.6-0.6-1.6-1.9-2.1-1.9
		s-0.6,0.6-0.6,2.9l-0.1,33.7c0,5.4-0.3,7.1-1.8,7.5c-0.9,0.3-1.9,0.4-2.4,0.4c-0.3,0-0.5,0.1-0.5,0.4c0,0.4,0.4,0.5,0.9,0.5
		c2.6,0,5.1-0.2,5.6-0.2c0.5,0,2.9,0.2,6.2,0.2c0.7,0,1.1-0.1,1.1-0.5c0-0.2-0.2-0.4-0.5-0.4c-0.5,0-1.8-0.1-2.9-0.4
		c-1.6-0.5-2.2-2-2.3-6.8L562.4,206.6z"/>
	<path class="st1" d="M614.8,225.8c0,5.6,0,10.3-0.3,12.8c-0.2,1.7-0.5,3-1.7,3.2c-0.5,0.1-1.2,0.2-1.8,0.2c-0.4,0-0.5,0.2-0.5,0.4
		c0,0.4,0.3,0.5,0.9,0.5c1.8,0,5.5-0.2,5.8-0.2c0.6,0,8,0.7,13.1,0.7c10,0,15.3-4.1,17.8-6.8c3.3-3.5,6.4-9.2,6.4-16.6
		c0-7-2.8-11.9-5.7-14.9c-7-7.2-17.8-6.7-23.6-6.7c-3.5,0-7.2,0.2-7.9,0.2c-0.3,0-4-0.2-6.7-0.2c-0.6,0-0.9,0.1-0.9,0.5
		c0,0.2,0.2,0.4,0.5,0.4c0.5,0,1.5,0.1,2,0.2c1.9,0.4,2.4,1.4,2.5,3.4c0.1,1.9,0.1,3.5,0.1,12.7V225.8L614.8,225.8z M619.7,214.5
		c0-4.5,0-10.5,0.1-12.5c0-0.6,0.2-0.9,0.7-1.2c0.5-0.2,2.6-0.4,3.8-0.4c7,0,13.7,0.8,19.2,6.6c2.4,2.5,5.6,7.4,5.6,14.8
		c0,5.4-1.6,11.1-4.7,14.1c-3.5,3.5-8.5,5.5-14,5.5c-6.9,0-9.2-1.2-10-2.4c-0.5-0.6-0.6-3-0.6-4.5c-0.1-1.1-0.1-6.5-0.1-12.8V214.5
		L619.7,214.5z"/>
	<path class="st1" d="M661.5,236.4c-1.1,2.9-2.2,5.2-4.9,5.5c-0.5,0.1-1.3,0.1-1.7,0.1c-0.3,0-0.5,0.1-0.5,0.4
		c0,0.4,0.4,0.5,1.1,0.5c2.8,0,6-0.2,6.6-0.2s3.2,0.2,4.6,0.2c0.5,0,0.9-0.1,0.9-0.5c0-0.2-0.2-0.4-0.6-0.4h-0.6
		c-1,0-2.2-0.5-2.2-1.7c0-1.1,0.3-2.5,0.8-3.9l3.5-10.4c0.1-0.3,0.3-0.5,0.6-0.5h12.6c0.3,0,0.4,0.1,0.5,0.4l5.5,14.5
		c0.4,0.9,0,1.5-0.4,1.6c-0.2,0.1-0.4,0.2-0.4,0.4c0,0.4,0.6,0.4,1.8,0.4c4.1,0.1,8.4,0.1,9.2,0.1c0.6,0,1.2-0.1,1.2-0.5
		c0-0.3-0.2-0.4-0.6-0.4c-0.6,0-1.5-0.1-2.4-0.4c-1.2-0.4-2.9-1.3-5.1-6.5c-3.6-8.9-12.8-33.2-13.7-35.5c-0.7-1.8-0.9-2.1-1.3-2.1
		c-0.4,0-0.6,0.4-1.3,2.3L661.5,236.4z M669.7,223.4c-0.2,0-0.3-0.1-0.2-0.4l5.2-15.9c0.3-0.9,0.6-0.9,0.9,0l5.6,15.9
		c0.1,0.2,0.1,0.4-0.2,0.4H669.7z"/>
</g>
</svg>
